# Blender v2.76 (sub 0) OBJ File: 'firebox_close.blend'
# www.blender.org
o Button_Cube.003
v 0.516219 -0.040000 0.361725
v 0.516219 0.040000 0.361725
v 0.516219 -0.040000 0.281725
v 0.516219 0.040000 0.281725
v 0.596219 -0.040000 0.361725
v 0.596219 0.040000 0.361725
v 0.596219 -0.040000 0.281725
v 0.596219 0.040000 0.281725
vt 0.000000 0.000000
vt 1.000000 0.000000
vt 1.000000 1.000000
vt 0.000000 1.000000
vn -1.000000 0.000000 0.000000
vn 0.000000 0.000000 -1.000000
vn 1.000000 0.000000 0.000000
vn 0.000000 0.000000 1.000000
vn 0.000000 -1.000000 0.000000
vn 0.000000 1.000000 0.000000
s off
f 2/1/1 4/2/1 3/3/1 1/4/1
f 4/1/2 8/2/2 7/3/2 3/4/2
f 8/1/3 6/2/3 5/3/3 7/4/3
f 6/1/4 2/2/4 1/3/4 5/4/4
f 1/1/5 3/2/5 7/3/5 5/4/5
f 6/1/6 8/2/6 4/3/6 2/4/6
g Door
o Door_Cube.002
v 0.515816 -0.474826 0.467683
v 0.526104 -0.474826 0.467683
v 0.515816 0.451107 0.467683
v 0.526104 0.451107 0.467683
v 0.515816 -0.474826 -0.458250
v 0.526104 -0.474826 -0.458250
v 0.515816 0.451107 -0.458250
v 0.526104 0.451107 -0.458250
vt 0.000000 0.000000
vt 1.000000 0.000000
vt 1.000000 1.000000
vt 0.000000 1.000000
vn 0.000000 0.000000 1.000000
vn 0.000000 1.000000 -0.000000
vn 0.000000 0.000000 -1.000000
vn 0.000000 -1.000000 -0.000000
vn -1.000000 0.000000 -0.000000
vn 1.000000 -0.000000 0.000000
s off
f 10/5/7 12/6/7 11/7/7 9/8/7
f 12/5/8 16/6/8 15/7/8 11/8/8
f 16/5/9 14/6/9 13/7/9 15/8/9
f 14/5/10 10/6/10 9/7/10 13/8/10
f 9/5/11 11/6/11 15/7/11 13/8/11
f 14/5/12 16/6/12 12/7/12 10/8/12
g Sticks
o Sticks_Cube.001_Cube.002
v 0.347428 -0.479466 0.022321
v 0.380514 -0.441979 0.022001
v 0.005691 -0.111108 0.027675
v -0.027395 -0.148594 0.027995
v 0.379876 -0.441844 -0.027995
v 0.005054 -0.110973 -0.022321
v 0.346790 -0.479330 -0.027675
v -0.028032 -0.148459 -0.022001
v 0.328337 -0.479466 -0.132939
v 0.358838 -0.441979 -0.145763
v 0.014074 -0.111108 0.001419
v -0.016426 -0.148595 0.014244
v 0.339316 -0.441844 -0.191795
v -0.005447 -0.110973 -0.044612
v 0.308815 -0.479330 -0.178970
v -0.035948 -0.148459 -0.031788
v 0.232270 -0.479465 -0.276816
v 0.252843 -0.441979 -0.302730
v 0.021372 -0.111109 -0.007863
v 0.000800 -0.148595 0.018051
v 0.213587 -0.441843 -0.333697
v -0.017883 -0.110973 -0.038831
v 0.193015 -0.479330 -0.307783
v -0.038456 -0.148460 -0.012917
v 0.056130 -0.479465 -0.378027
v 0.060743 -0.441978 -0.410791
v 0.010512 -0.111109 -0.039304
v 0.005899 -0.148596 -0.006540
v 0.011210 -0.441843 -0.417610
v -0.039021 -0.110974 -0.046123
v 0.006597 -0.479329 -0.384846
v -0.043633 -0.148460 -0.013359
v -0.122028 -0.479464 -0.367790
v -0.131693 -0.441978 -0.399434
v -0.020230 -0.111110 -0.041520
v -0.010565 -0.148596 -0.009876
v -0.179467 -0.441842 -0.384682
v -0.068004 -0.110974 -0.026768
v -0.169802 -0.479329 -0.353038
v -0.058339 -0.148461 0.004876
v -0.262251 -0.479464 -0.296293
v -0.282962 -0.441977 -0.322095
v -0.046708 -0.111110 -0.031044
v -0.025996 -0.148597 -0.005242
v -0.321858 -0.441842 -0.290677
v -0.085604 -0.110975 0.000374
v -0.301146 -0.479328 -0.264874
v -0.064892 -0.148461 0.026177
v -0.368535 -0.479464 -0.190914
v -0.397088 -0.441977 -0.207632
v -0.072557 -0.111110 -0.019999
v -0.044004 -0.148597 -0.003281
v -0.422218 -0.441842 -0.164406
v -0.097687 -0.110975 0.023227
v -0.393665 -0.479329 -0.147688
v -0.069133 -0.148461 0.039944
v -0.403506 -0.479464 -0.037600
v -0.436585 -0.441977 -0.038329
v -0.061768 -0.111110 -0.032118
v -0.028689 -0.148597 -0.031390
v -0.437533 -0.441842 0.011662
v -0.062716 -0.110975 0.017872
v -0.404454 -0.479329 0.012391
v -0.029637 -0.148461 0.018601
v -0.383902 -0.479464 0.110808
v -0.415549 -0.441977 0.120465
v -0.057603 -0.111110 0.009101
v -0.025957 -0.148597 -0.000555
v -0.400809 -0.441842 0.168243
v -0.042864 -0.110975 0.056879
v -0.369163 -0.479329 0.158586
v -0.011217 -0.148461 0.047223
v -0.305009 -0.479464 0.264942
v -0.330239 -0.441977 0.286348
v -0.045718 -0.111110 0.042269
v -0.020488 -0.148597 0.020863
v -0.297775 -0.441842 0.324375
v -0.013254 -0.110975 0.080296
v -0.272545 -0.479329 0.302969
v 0.011976 -0.148461 0.058891
v -0.202432 -0.479464 0.343154
v -0.220267 -0.441977 0.371022
v -0.019932 -0.111110 0.054175
v -0.002097 -0.148597 0.026306
v -0.178070 -0.441842 0.397844
v 0.022265 -0.110975 0.080996
v -0.160236 -0.479329 0.369975
v 0.040100 -0.148461 0.053127
v -0.024944 -0.479464 0.381432
v -0.026794 -0.441977 0.414467
v -0.007874 -0.111110 0.040075
v -0.006024 -0.148597 0.007040
v 0.023135 -0.441842 0.417110
v 0.042056 -0.110975 0.042718
v 0.024986 -0.479329 0.384075
v 0.043906 -0.148461 0.009683
v 0.130727 -0.479464 0.382350
v 0.140661 -0.441977 0.413911
v 0.026153 -0.111110 0.056958
v 0.016219 -0.148597 0.025398
v 0.188308 -0.441842 0.398752
v 0.073800 -0.110975 0.041800
v 0.178373 -0.479329 0.367191
v 0.063866 -0.148461 0.010239
v 0.302793 -0.479464 0.240668
v 0.328326 -0.441977 0.261711
v 0.037740 -0.111110 0.024885
v 0.012207 -0.148597 0.003842
v 0.360007 -0.441842 0.223029
v 0.069421 -0.110975 -0.013798
v 0.334473 -0.479329 0.201986
v 0.043888 -0.148461 -0.034840
vt 0.000000 0.000000
vt 1.000000 0.000000
vt 1.000000 1.000000
vt 0.000000 1.000000
vn 0.502600 -0.002700 -0.864500
vn -0.571100 0.749700 -0.334300
vn -0.502600 0.002700 0.864500
vn 0.571100 -0.749700 0.334300
vn 0.649100 0.661700 0.375300
vn -0.649100 -0.661700 -0.375300
vn 0.955500 -0.002700 -0.295000
vn -0.193300 0.749700 -0.632900
vn -0.955500 0.002700 0.295000
vn 0.193300 -0.749700 0.632900
vn 0.222900 0.661700 0.715800
vn -0.222900 -0.661700 -0.715800
vn -0.294800 -0.002700 -0.955600
vn -0.632900 0.749700 0.193100
vn 0.294800 0.002700 0.955600
vn 0.632900 -0.749700 -0.193100
vn 0.715900 0.661700 -0.222700
vn -0.715900 -0.661700 0.222700
vn 0.012700 -0.002700 0.999900
vn 0.661700 0.749700 -0.006400
vn -0.012700 0.002700 -0.999900
vn -0.661700 -0.749700 0.006400
vn -0.749600 0.661700 0.011300
vn 0.749600 -0.661700 -0.011400
vn -0.843900 -0.002700 -0.536400
vn -0.356700 0.749700 0.557400
vn 0.843900 0.002700 0.536400
vn 0.356700 -0.749700 -0.557400
vn 0.400700 0.661700 -0.633700
vn -0.400700 -0.661700 0.633700
vn -0.633600 -0.002700 0.773600
vn 0.510700 0.749700 0.420900
vn 0.633600 0.002700 -0.773700
vn -0.510700 -0.749700 -0.420900
vn -0.581200 0.661700 -0.473700
vn 0.581200 -0.661700 0.473700
vn 0.777900 -0.002700 -0.628400
vn -0.414200 0.749700 -0.516100
vn -0.777900 0.002700 0.628400
vn 0.414200 -0.749700 0.516100
vn 0.472500 0.661700 0.582100
vn -0.472500 -0.661700 -0.582100
vn 0.990700 -0.002700 0.136400
vn 0.092300 0.749700 -0.655300
vn -0.990700 0.002700 -0.136400
vn -0.092300 -0.749700 0.655300
vn -0.100500 0.661700 0.743000
vn 0.100500 -0.661700 -0.743000
vn -0.649300 -0.002700 -0.760500
vn -0.504600 0.749700 0.428100
vn 0.649300 0.002700 0.760500
vn 0.504600 -0.749700 -0.428100
vn 0.569000 0.661700 -0.488200
vn -0.569000 -0.661700 0.488200
vn 0.785100 -0.002700 0.619400
vn 0.411500 0.749700 -0.518300
vn -0.785100 0.002700 -0.619400
vn -0.411400 -0.749700 0.518300
vn -0.462900 0.661700 0.589700
vn 0.462900 -0.661700 -0.589700
vn -0.998600 -0.002700 -0.052900
vn -0.037000 0.749700 0.660700
vn 0.998600 0.002700 0.052900
vn 0.037000 -0.749700 -0.660700
vn 0.037800 0.661700 -0.748800
vn -0.037800 -0.661700 0.748800
vn 0.019000 -0.002700 -0.999800
vn -0.661600 0.749700 -0.014600
vn -0.019000 0.002700 0.999800
vn 0.661600 -0.749700 0.014600
vn 0.749600 0.661700 0.012400
vn -0.749600 -0.661700 -0.012400
vn 0.390400 -0.002700 0.920600
vn 0.610000 0.749700 -0.256500
vn -0.390400 0.002700 -0.920600
vn -0.610000 -0.749700 0.256500
vn -0.689500 0.661700 0.294400
vn 0.689500 -0.661700 -0.294400
vn -0.952900 -0.002700 0.303200
vn 0.198700 0.749700 0.631200
vn 0.952900 0.002700 -0.303200
vn -0.198700 -0.749700 -0.631200
vn -0.229000 0.661700 -0.713900
vn 0.229000 -0.661700 0.713900
s 1
f 65/9/13 66/10/13 67/11/13 68/12/13
f 66/9/14 69/10/14 70/11/14 67/12/14
f 69/9/15 71/10/15 72/11/15 70/12/15
f 71/9/16 65/10/16 68/11/16 72/12/16
f 68/9/17 67/10/17 70/11/17 72/12/17
f 71/9/18 69/10/18 66/11/18 65/12/18
f 49/9/19 50/10/19 51/11/19 52/12/19
f 50/9/20 53/10/20 54/11/20 51/12/20
f 53/9/21 55/10/21 56/11/21 54/12/21
f 55/9/22 49/10/22 52/11/22 56/12/22
f 52/9/23 51/10/23 54/11/23 56/12/23
f 55/9/24 53/10/24 50/11/24 49/12/24
f 81/9/25 82/10/25 83/11/25 84/12/25
f 82/9/26 85/10/26 86/11/26 83/12/26
f 85/9/27 87/10/27 88/11/27 86/12/27
f 87/9/28 81/10/28 84/11/28 88/12/28
f 84/9/29 83/10/29 86/11/29 88/12/29
f 87/9/30 85/10/30 82/11/30 81/12/30
f 17/9/31 18/10/31 19/11/31 20/12/31
f 18/9/32 21/10/32 22/11/32 19/12/32
f 21/9/33 23/10/33 24/11/33 22/12/33
f 23/9/34 17/10/34 20/11/34 24/12/34
f 20/9/35 19/10/35 22/11/35 24/12/35
f 23/9/36 21/10/36 18/11/36 17/12/36
f 97/9/37 98/10/37 99/11/37 100/12/37
f 98/9/38 101/10/38 102/11/38 99/12/38
f 101/9/39 103/10/39 104/11/39 102/12/39
f 103/9/40 97/10/40 100/11/40 104/12/40
f 100/9/41 99/10/41 102/11/41 104/12/41
f 103/9/42 101/10/42 98/11/42 97/12/42
f 121/9/43 122/10/43 123/11/43 124/12/43
f 122/9/44 125/10/44 126/11/44 123/12/44
f 125/9/45 127/10/45 128/11/45 126/12/45
f 127/9/46 121/10/46 124/11/46 128/12/46
f 124/9/47 123/10/47 126/11/47 128/12/47
f 127/9/48 125/10/48 122/11/48 121/12/48
f 57/9/49 58/10/49 59/11/49 60/12/49
f 58/9/50 61/10/50 62/11/50 59/12/50
f 61/9/51 63/10/51 64/11/51 62/12/51
f 63/9/52 57/10/52 60/11/52 64/12/52
f 60/9/53 59/10/53 62/11/53 64/12/53
f 63/9/54 61/10/54 58/11/54 57/12/54
f 41/9/55 42/10/55 43/11/55 44/12/55
f 42/9/56 45/10/56 46/11/56 43/12/56
f 45/9/57 47/10/57 48/11/57 46/12/57
f 47/9/58 41/10/58 44/11/58 48/12/58
f 44/9/59 43/10/59 46/11/59 48/12/59
f 47/9/60 45/10/60 42/11/60 41/12/60
f 89/9/61 90/10/61 91/11/61 92/12/61
f 90/9/62 93/10/62 94/11/62 91/12/62
f 93/9/63 95/10/63 96/11/63 94/12/63
f 95/9/64 89/10/64 92/11/64 96/12/64
f 92/9/65 91/10/65 94/11/65 96/12/65
f 95/9/66 93/10/66 90/11/66 89/12/66
f 33/9/67 34/10/67 35/11/67 36/12/67
f 34/9/68 37/10/68 38/11/68 35/12/68
f 37/9/69 39/10/69 40/11/69 38/12/69
f 39/9/70 33/10/70 36/11/70 40/12/70
f 36/9/71 35/10/71 38/11/71 40/12/71
f 39/9/72 37/10/72 34/11/72 33/12/72
f 105/9/73 106/10/73 107/11/73 108/12/73
f 106/9/74 109/10/74 110/11/74 107/12/74
f 109/9/75 111/10/75 112/11/75 110/12/75
f 111/9/76 105/10/76 108/11/76 112/12/76
f 108/9/77 107/10/77 110/11/77 112/12/77
f 111/9/78 109/10/78 106/11/78 105/12/78
f 73/9/79 74/10/79 75/11/79 76/12/79
f 74/9/80 77/10/80 78/11/80 75/12/80
f 77/9/81 79/10/81 80/11/81 78/12/81
f 79/9/82 73/10/82 76/11/82 80/12/82
f 76/9/83 75/10/83 78/11/83 80/12/83
f 79/9/84 77/10/84 74/11/84 73/12/84
f 25/9/85 26/10/85 27/11/85 28/12/85
f 26/9/86 29/10/86 30/11/86 27/12/86
f 29/9/87 31/10/87 32/11/87 30/12/87
f 31/9/88 25/10/88 28/11/88 32/12/88
f 28/9/89 27/10/89 30/11/89 32/12/89
f 31/9/90 29/10/90 26/11/90 25/12/90
f 113/9/91 114/10/91 115/11/91 116/12/91
f 114/9/92 117/10/92 118/11/92 115/12/92
f 117/9/93 119/10/93 120/11/93 118/12/93
f 119/9/94 113/10/94 116/11/94 120/12/94
f 116/9/95 115/10/95 118/11/95 120/12/95
f 119/9/96 117/10/96 114/11/96 113/12/96
g Box
o Box_Cube.001
v -0.500000 -0.500000 0.500000
v -0.500000 0.500000 0.500000
v -0.500000 -0.500000 -0.500000
v -0.500000 0.500000 -0.500000
v 0.500000 -0.500000 0.500000
v 0.500000 0.500000 0.500000
v 0.500000 -0.500000 -0.500000
v 0.500000 0.500000 -0.500000
v 0.500000 0.439092 -0.446279
v 0.500000 -0.460316 -0.446279
v 0.500000 0.439092 0.446168
v 0.500000 -0.460316 0.446168
v -0.460528 0.439092 -0.446279
v -0.460528 -0.460316 -0.446279
v -0.460528 0.439092 0.446168
v -0.460528 -0.460316 0.446168
vt 0.000000 0.000000
vt 1.000000 0.000000
vt 1.000000 1.000000
vt 0.000000 1.000000
vn -1.000000 0.000000 0.000000
vn 0.000000 -0.000000 -1.000000
vn 1.000000 0.000000 0.000000
vn 0.000000 0.000000 1.000000
vn 0.000000 -1.000000 0.000000
vn 0.000000 1.000000 -0.000000
s off
f 130/13/97 132/14/97 131/15/97 129/16/97
f 132/13/98 136/14/98 135/15/98 131/16/98
f 134/13/99 133/14/99 140/15/99 139/16/99
f 134/13/100 130/14/100 129/15/100 133/16/100
f 129/13/101 131/14/101 135/15/101 133/16/101
f 134/13/102 136/14/102 132/15/102 130/16/102
f 138/13/100 137/14/100 141/15/100 142/16/100
f 133/13/99 135/14/99 138/15/99 140/16/99
f 136/13/99 134/14/99 139/15/99 137/16/99
f 135/13/99 136/14/99 137/15/99 138/16/99
f 141/13/99 143/14/99 144/15/99 142/16/99
f 140/13/102 138/14/102 142/15/102 144/16/102
f 137/13/101 139/14/101 143/15/101 141/16/101
f 139/13/98 140/14/98 144/15/98 143/16/98
