# Blender v2.76 (sub 0) OBJ File: 'smelter.blend'
# www.blender.org
o Cube.002
v 0.391400 -0.300000 0.462530
v -0.428600 -0.300000 0.462530
v 0.391400 0.300000 0.462530
v -0.428600 0.300000 0.462530
v 0.391400 -0.300000 0.562530
v -0.428600 -0.300000 0.562530
v 0.391400 0.300000 0.562530
v -0.428600 0.300000 0.562530
vt 0.000000 0.000000
vt 1.000000 0.000000
vt 1.000000 1.000000
vt 0.000000 1.000000
vn 0.000000 0.000000 -1.000000
vn 0.000000 1.000000 0.000000
vn -0.000000 0.000000 1.000000
vn 0.000000 -1.000000 0.000000
vn 1.000000 0.000000 0.000000
vn -1.000000 0.000000 0.000000
s off
f 2/1/1 4/2/1 3/3/1 1/4/1
f 4/1/2 8/2/2 7/3/2 3/4/2
f 8/1/3 6/2/3 5/3/3 7/4/3
f 6/1/4 2/2/4 1/3/4 5/4/4
f 1/1/5 3/2/5 7/3/5 5/4/5
f 6/1/6 8/2/6 4/3/6 2/4/6
o Cube.001
v -0.500000 -0.500000 -0.500000
v -0.500000 -0.500000 0.500000
v -0.500000 0.500000 -0.500000
v -0.500000 0.500000 0.500000
v 0.500000 -0.500000 -0.500000
v 0.500000 -0.500000 0.500000
v 0.500000 0.500000 -0.500000
v 0.500000 0.500000 0.500000
v -0.500000 0.000000 0.500000
v 0.000000 0.500000 0.500000
v 0.500000 0.000000 0.500000
v 0.000000 -0.500000 0.500000
v 0.250000 0.250000 -0.442513
v -0.500000 0.250000 0.500000
v 0.250000 0.500000 0.500000
v 0.500000 -0.250000 0.500000
v -0.250000 -0.500000 0.500000
v -0.500000 -0.250000 0.500000
v -0.250000 0.500000 0.500000
v 0.500000 0.250000 0.500000
v 0.250000 -0.500000 0.500000
v 0.000000 -0.250000 -0.442513
v 0.375000 0.000000 -0.442513
v 0.000000 -0.250000 0.500000
v 0.000000 0.250000 0.500000
v 0.250000 0.250000 0.500000
v 0.250000 -0.250000 0.500000
v -0.250000 -0.250000 0.500000
v -0.250000 0.250000 0.500000
v -0.500000 -0.125000 0.500000
v 0.500000 0.125000 0.500000
v -0.375000 0.000000 0.500000
v -0.500000 0.125000 0.500000
v 0.500000 -0.125000 0.500000
v 0.375000 0.000000 0.500000
v 0.375000 0.250000 0.500000
v -0.250000 0.000000 -0.442513
v 0.375000 -0.250000 0.500000
v 0.000000 0.250000 -0.442513
v -0.375000 -0.250000 0.500000
v 0.000000 0.000000 -0.442513
v -0.375000 0.250000 0.500000
v 0.250000 0.000000 -0.442513
v -0.375000 0.125000 0.500000
v 0.375000 -0.125000 0.500000
v 0.375000 0.125000 0.500000
v -0.375000 -0.125000 0.500000
v 0.000000 0.250000 0.500000
v 0.375000 0.000000 0.500000
v 0.000000 -0.250000 0.500000
v 0.250000 0.250000 0.500000
v 0.375000 0.250000 0.500000
v 0.250000 -0.250000 0.500000
v 0.375000 -0.250000 0.500000
v -0.250000 -0.250000 0.500000
v -0.250000 0.250000 0.500000
v -0.375000 0.000000 0.500000
v -0.375000 -0.250000 0.500000
v -0.375000 0.250000 0.500000
v -0.375000 0.125000 0.500000
v 0.375000 -0.125000 0.500000
v 0.375000 0.125000 0.500000
v -0.375000 -0.125000 0.500000
v 0.375000 0.250000 -0.442513
v 0.250000 0.125000 -0.442513
v 0.250000 -0.250000 -0.442513
v 0.375000 -0.250000 -0.442513
v 0.250000 -0.125000 -0.442513
v -0.250000 -0.250000 -0.442513
v -0.250000 -0.125000 -0.442513
v -0.250000 0.250000 -0.442513
v -0.250000 0.125000 -0.442513
v -0.375000 0.000000 -0.442513
v -0.375000 -0.250000 -0.442513
v -0.375000 0.250000 -0.442513
v -0.375000 0.125000 -0.442513
v 0.375000 -0.125000 -0.442513
v 0.375000 0.125000 -0.442513
v -0.375000 -0.125000 -0.442513
vt 0.500000 1.000000
vt 0.821394 0.883022
vt 0.992404 0.586824
vt 0.933013 0.250000
vt 0.671010 0.030154
vt 0.328990 0.030154
vt 0.066987 0.250000
vt 0.007596 0.586824
vt 0.178606 0.883022
vt 0.890916 0.811745
vt 0.987464 0.388739
vt 0.716942 0.049516
vt 0.283058 0.049516
vt 0.012536 0.388740
vt 0.109084 0.811745
vt 0.000000 0.000000
vt 1.000000 0.000000
vt 1.000000 1.000000
vt 0.000000 1.000000
vt 0.975528 0.654508
vt 0.793893 0.095491
vt 0.206107 0.095492
vt 0.024472 0.654509
vn -1.000000 0.000000 0.000000
vn 0.000000 1.000000 0.000000
vn 1.000000 0.000000 0.000000
vn 0.000000 -1.000000 0.000000
vn 0.000000 0.000000 -1.000000
vn 0.000000 0.000000 1.000000
s off
f 10/5/7 26/6/7 38/7/7 17/8/7 41/9/7 22/10/7 12/11/7 11/12/7 9/13/7
f 12/5/8 27/14/8 18/15/8 23/16/8 16/17/8 15/18/8 11/19/8
f 16/5/9 28/6/9 39/7/9 19/8/9 42/9/9 24/10/9 14/11/9 13/12/9 15/13/9
f 14/5/10 29/14/10 20/15/10 25/16/10 10/17/10 9/18/10 13/19/10
f 9/20/11 11/21/11 15/22/11 13/23/11
f 37/5/12 27/24/12 12/25/12 22/26/12 50/27/12
f 55/20/12 40/21/12 17/22/12 38/23/12
f 37/20/12 50/21/12 67/22/12 64/23/12
f 34/20/12 23/21/12 18/22/12 33/23/12
f 33/20/12 37/21/12 64/22/12 56/23/12
f 35/20/12 46/21/12 62/22/12 61/23/12
f 28/5/12 16/24/12 23/25/12 34/26/12 44/27/12
f 29/20/12 35/21/12 32/22/12 20/23/12
f 14/5/12 24/24/12 46/25/12 35/26/12 29/27/12
f 32/20/12 35/21/12 61/22/12 58/23/12
f 25/5/12 36/24/12 48/25/12 26/26/12 10/27/12
f 20/20/12 32/21/12 36/22/12 25/23/12
f 54/20/12 44/21/12 60/22/12 70/23/12
f 52/20/12 50/21/12 22/22/12 41/23/12
f 48/20/12 36/21/12 63/22/12 66/23/12
f 33/20/12 18/21/12 27/22/12 37/23/12
f 40/20/12 52/21/12 41/22/12 17/23/12
f 50/20/12 52/21/12 68/22/12 67/23/12
f 43/20/12 54/21/12 70/22/12 57/23/12
f 52/20/12 40/21/12 65/22/12 68/23/12
f 24/20/12 42/21/12 53/22/12 46/23/12
f 42/20/12 19/21/12 43/22/12 53/23/12
f 36/20/12 32/21/12 58/22/12 63/23/12
f 19/20/12 39/21/12 54/22/12 43/23/12
f 39/20/12 28/21/12 44/22/12 54/23/12
f 48/20/12 55/21/12 38/22/12 26/23/12
f 44/20/12 34/21/12 59/22/12 60/23/12
f 40/20/12 55/21/12 71/22/12 65/23/12
f 69/20/7 57/21/7 31/22/7 85/23/7
f 62/20/7 69/21/7 85/22/7 75/23/7
f 63/20/8 58/21/8 30/22/8 77/23/8
f 65/20/9 71/21/9 87/22/9 81/23/9
f 66/20/8 63/21/8 77/22/8 82/23/8
f 71/20/9 66/21/9 82/22/9 87/23/9
f 67/20/9 68/21/9 84/22/9 83/23/9
f 61/20/8 62/21/8 75/22/8 74/23/8
f 68/20/9 65/21/9 81/22/9 84/23/9
f 58/20/8 61/21/8 74/22/8 30/23/8
f 70/20/7 60/21/7 72/22/7 86/23/7
f 57/20/7 70/21/7 86/22/7 31/23/7
f 46/20/12 53/21/12 69/22/12 62/23/12
f 55/20/12 48/21/12 66/22/12 71/23/12
f 34/20/12 33/21/12 56/22/12 59/23/12
f 53/20/12 43/21/12 57/22/12 69/23/12
f 74/5/12 76/24/12 51/25/12 49/26/12 30/27/12
f 51/5/12 73/24/12 21/25/12 47/26/12 49/27/12
f 86/20/12 72/21/12 21/22/12 73/23/12
f 85/20/12 31/21/12 51/22/12 76/23/12
f 30/5/12 49/24/12 45/25/12 78/26/12 77/27/12
f 49/5/12 47/24/12 79/25/12 80/26/12 45/27/12
f 45/20/12 80/21/12 84/22/12 81/23/12
f 80/20/12 79/21/12 83/22/12 84/23/12
f 75/20/12 85/21/12 76/22/12 74/23/12
f 31/20/12 86/21/12 73/22/12 51/23/12
f 77/20/12 78/21/12 87/22/12 82/23/12
f 78/20/12 45/21/12 81/22/12 87/23/12
f 59/20/10 56/21/10 47/22/10 21/23/10
f 64/20/10 67/21/10 83/22/10 79/23/10
f 56/20/10 64/21/10 79/22/10 47/23/10
f 60/20/10 59/21/10 21/22/10 72/23/10
